<?xml version="1.0" encoding="utf-8"?>
<!-- Generator: Adobe Illustrator 14.0.0, SVG Export Plug-In . SVG Version: 6.00 Build 43363)  -->
<svg version="1.2" baseProfile="tiny" id="Layer_1" xmlns="http://www.w3.org/2000/svg" xmlns:xlink="http://www.w3.org/1999/xlink"
	 x="0px" y="0px" width="285.333px" height="249.106px" viewBox="0 0 285.333 249.106" xml:space="preserve">
<path fill="#FFFFFF" d="M73.067,249.106l37.141-64.33c9.664,5.23,20.721,8.204,32.459,8.204c11.739,0,22.797-2.975,32.462-8.205
	l37.141,64.329l3.464-2l-37.147-64.342c18.96-11.742,31.772-32.479,32.459-56.21h74.288v-4h-74.288
	c-0.687-23.731-13.5-44.47-32.46-56.212L215.731,2l-3.464-2l-37.141,64.328c-9.665-5.229-20.721-8.204-32.46-8.204
	s-22.796,2.975-32.461,8.205L73.065,0l-3.465,2l37.147,64.342c-18.96,11.743-31.772,32.48-32.458,56.212H0v4h74.29
	c0.687,23.731,13.5,44.469,32.461,56.211l-37.148,64.342L73.067,249.106z M78.239,124.553c0-35.526,28.902-64.429,64.428-64.429
	c35.526,0,64.429,28.902,64.429,64.429c0,35.525-28.902,64.428-64.429,64.428C107.142,188.98,78.239,160.078,78.239,124.553z"/>
</svg>
